<mxfile host="app.diagrams.net" agent="Mozilla/5.0 (Windows NT 10.0; Win64; x64) AppleWebKit/537.36 (KHTML, like Gecko) Chrome/132.0.0.0 Safari/537.36 Edg/132.0.0.0" version="26.0.13">
  <diagram name="Page-1" id="NEChOKZ-VIrogyTcA6fB">
    <mxGraphModel dx="2066" dy="1115" grid="1" gridSize="10" guides="1" tooltips="1" connect="1" arrows="1" fold="1" page="1" pageScale="1" pageWidth="827" pageHeight="1169" math="0" shadow="0">
      <root>
        <mxCell id="0" />
        <mxCell id="1" parent="0" />
        <mxCell id="TCUnz3l-paejA2EUPetH-1" value="SynergyContext" style="swimlane;fontStyle=1;align=center;verticalAlign=top;childLayout=stackLayout;horizontal=1;startSize=38.857142857142854;horizontalStack=0;resizeParent=1;resizeParentMax=0;resizeLast=0;collapsible=0;marginBottom=0;" vertex="1" parent="1">
          <mxGeometry x="603" y="20" width="422" height="135.85714285714286" as="geometry" />
        </mxCell>
        <mxCell id="TCUnz3l-paejA2EUPetH-2" value="+List&lt;ISynergySource&gt; SynergySources" style="text;strokeColor=none;fillColor=none;align=left;verticalAlign=top;spacingLeft=4;spacingRight=4;overflow=hidden;rotatable=0;points=[[0,0.5],[1,0.5]];portConstraint=eastwest;" vertex="1" parent="TCUnz3l-paejA2EUPetH-1">
          <mxGeometry y="38.857142857142854" width="422" height="39" as="geometry" />
        </mxCell>
        <mxCell id="TCUnz3l-paejA2EUPetH-3" value="+List&lt;SceneEnhancement&gt; SceneEnhancements" style="text;strokeColor=none;fillColor=none;align=left;verticalAlign=top;spacingLeft=4;spacingRight=4;overflow=hidden;rotatable=0;points=[[0,0.5],[1,0.5]];portConstraint=eastwest;" vertex="1" parent="TCUnz3l-paejA2EUPetH-1">
          <mxGeometry y="77.85714285714286" width="422" height="39" as="geometry" />
        </mxCell>
        <mxCell id="TCUnz3l-paejA2EUPetH-4" style="line;strokeWidth=1;fillColor=none;align=left;verticalAlign=middle;spacingTop=-1;spacingLeft=3;spacingRight=3;rotatable=0;labelPosition=right;points=[];portConstraint=eastwest;strokeColor=inherit;" vertex="1" parent="TCUnz3l-paejA2EUPetH-1">
          <mxGeometry y="116.85714285714286" width="422" height="19" as="geometry" />
        </mxCell>
        <mxCell id="TCUnz3l-paejA2EUPetH-5" value="SynergyAnalyzer" style="swimlane;fontStyle=1;align=center;verticalAlign=top;childLayout=stackLayout;horizontal=1;startSize=45.333333333333336;horizontalStack=0;resizeParent=1;resizeParentMax=0;resizeLast=0;collapsible=0;marginBottom=0;" vertex="1" parent="1">
          <mxGeometry x="567" y="240" width="496" height="143.33333333333334" as="geometry" />
        </mxCell>
        <mxCell id="TCUnz3l-paejA2EUPetH-6" value="+List&lt;SynergyDef&gt; SynergyDefs" style="text;strokeColor=none;fillColor=none;align=left;verticalAlign=top;spacingLeft=4;spacingRight=4;overflow=hidden;rotatable=0;points=[[0,0.5],[1,0.5]];portConstraint=eastwest;" vertex="1" parent="TCUnz3l-paejA2EUPetH-5">
          <mxGeometry y="45.333333333333336" width="496" height="45" as="geometry" />
        </mxCell>
        <mxCell id="TCUnz3l-paejA2EUPetH-7" style="line;strokeWidth=1;fillColor=none;align=left;verticalAlign=middle;spacingTop=-1;spacingLeft=3;spacingRight=3;rotatable=0;labelPosition=right;points=[];portConstraint=eastwest;strokeColor=inherit;" vertex="1" parent="TCUnz3l-paejA2EUPetH-5">
          <mxGeometry y="90.33333333333334" width="496" height="8" as="geometry" />
        </mxCell>
        <mxCell id="TCUnz3l-paejA2EUPetH-8" value="+List&lt;SynergyInstance&gt; Analyze(SynergyContext Context)" style="text;strokeColor=none;fillColor=none;align=left;verticalAlign=top;spacingLeft=4;spacingRight=4;overflow=hidden;rotatable=0;points=[[0,0.5],[1,0.5]];portConstraint=eastwest;" vertex="1" parent="TCUnz3l-paejA2EUPetH-5">
          <mxGeometry y="98.33333333333334" width="496" height="45" as="geometry" />
        </mxCell>
        <mxCell id="TCUnz3l-paejA2EUPetH-9" value="&lt;&lt;abstract&gt;&gt;&#xa;SynergyDef" style="swimlane;fontStyle=1;align=center;verticalAlign=top;childLayout=stackLayout;horizontal=1;startSize=62.25;horizontalStack=0;resizeParent=1;resizeParentMax=0;resizeLast=0;collapsible=0;marginBottom=0;" vertex="1" parent="1">
          <mxGeometry x="263" y="459" width="433" height="154.25" as="geometry" />
        </mxCell>
        <mxCell id="TCUnz3l-paejA2EUPetH-10" style="line;strokeWidth=1;fillColor=none;align=left;verticalAlign=middle;spacingTop=-1;spacingLeft=3;spacingRight=3;rotatable=0;labelPosition=right;points=[];portConstraint=eastwest;strokeColor=inherit;" vertex="1" parent="TCUnz3l-paejA2EUPetH-9">
          <mxGeometry y="62.25" width="433" height="8" as="geometry" />
        </mxCell>
        <mxCell id="TCUnz3l-paejA2EUPetH-11" value="+SynergyInstance Analyze(SynergyContext Context)" style="text;strokeColor=none;fillColor=none;align=left;verticalAlign=top;spacingLeft=4;spacingRight=4;overflow=hidden;rotatable=0;points=[[0,0.5],[1,0.5]];portConstraint=eastwest;" vertex="1" parent="TCUnz3l-paejA2EUPetH-9">
          <mxGeometry y="70.25" width="433" height="42" as="geometry" />
        </mxCell>
        <mxCell id="TCUnz3l-paejA2EUPetH-12" value="+void ApplyEffect(ISynergyTarget Target)" style="text;strokeColor=none;fillColor=none;align=left;verticalAlign=top;spacingLeft=4;spacingRight=4;overflow=hidden;rotatable=0;points=[[0,0.5],[1,0.5]];portConstraint=eastwest;" vertex="1" parent="TCUnz3l-paejA2EUPetH-9">
          <mxGeometry y="112.25" width="433" height="42" as="geometry" />
        </mxCell>
        <mxCell id="TCUnz3l-paejA2EUPetH-13" value="CommonElementSynergyDef" style="swimlane;fontStyle=1;align=center;verticalAlign=top;childLayout=stackLayout;horizontal=1;startSize=40.57142857142857;horizontalStack=0;resizeParent=1;resizeParentMax=0;resizeLast=0;collapsible=0;marginBottom=0;" vertex="1" parent="1">
          <mxGeometry x="20" y="237" width="497" height="130.57142857142856" as="geometry" />
        </mxCell>
        <mxCell id="TCUnz3l-paejA2EUPetH-14" style="line;strokeWidth=1;fillColor=none;align=left;verticalAlign=middle;spacingTop=-1;spacingLeft=3;spacingRight=3;rotatable=0;labelPosition=right;points=[];portConstraint=eastwest;strokeColor=inherit;" vertex="1" parent="TCUnz3l-paejA2EUPetH-13">
          <mxGeometry y="40.57142857142857" width="497" height="8" as="geometry" />
        </mxCell>
        <mxCell id="TCUnz3l-paejA2EUPetH-15" value="+SynergyInstance Analyze(SynergyContext Context)" style="text;strokeColor=none;fillColor=none;align=left;verticalAlign=top;spacingLeft=4;spacingRight=4;overflow=hidden;rotatable=0;points=[[0,0.5],[1,0.5]];portConstraint=eastwest;" vertex="1" parent="TCUnz3l-paejA2EUPetH-13">
          <mxGeometry y="48.57142857142857" width="497" height="41" as="geometry" />
        </mxCell>
        <mxCell id="TCUnz3l-paejA2EUPetH-16" value="+void ApplyEffect(ISynergyTarget Target)" style="text;strokeColor=none;fillColor=none;align=left;verticalAlign=top;spacingLeft=4;spacingRight=4;overflow=hidden;rotatable=0;points=[[0,0.5],[1,0.5]];portConstraint=eastwest;" vertex="1" parent="TCUnz3l-paejA2EUPetH-13">
          <mxGeometry y="89.57142857142857" width="497" height="41" as="geometry" />
        </mxCell>
        <mxCell id="TCUnz3l-paejA2EUPetH-17" value="SynergyInstance" style="swimlane;fontStyle=1;align=center;verticalAlign=top;childLayout=stackLayout;horizontal=1;startSize=30.933333333333334;horizontalStack=0;resizeParent=1;resizeParentMax=0;resizeLast=0;collapsible=0;marginBottom=0;" vertex="1" parent="1">
          <mxGeometry x="317" y="706" width="253" height="231.93333333333334" as="geometry" />
        </mxCell>
        <mxCell id="TCUnz3l-paejA2EUPetH-18" value="+SynergyDef SourceDef" style="text;strokeColor=none;fillColor=none;align=left;verticalAlign=top;spacingLeft=4;spacingRight=4;overflow=hidden;rotatable=0;points=[[0,0.5],[1,0.5]];portConstraint=eastwest;" vertex="1" parent="TCUnz3l-paejA2EUPetH-17">
          <mxGeometry y="30.933333333333334" width="253" height="31" as="geometry" />
        </mxCell>
        <mxCell id="TCUnz3l-paejA2EUPetH-19" value="+ISynergySource Source" style="text;strokeColor=none;fillColor=none;align=left;verticalAlign=top;spacingLeft=4;spacingRight=4;overflow=hidden;rotatable=0;points=[[0,0.5],[1,0.5]];portConstraint=eastwest;" vertex="1" parent="TCUnz3l-paejA2EUPetH-17">
          <mxGeometry y="61.93333333333334" width="253" height="31" as="geometry" />
        </mxCell>
        <mxCell id="TCUnz3l-paejA2EUPetH-20" value="+ISynergyTarget Target" style="text;strokeColor=none;fillColor=none;align=left;verticalAlign=top;spacingLeft=4;spacingRight=4;overflow=hidden;rotatable=0;points=[[0,0.5],[1,0.5]];portConstraint=eastwest;" vertex="1" parent="TCUnz3l-paejA2EUPetH-17">
          <mxGeometry y="92.93333333333334" width="253" height="31" as="geometry" />
        </mxCell>
        <mxCell id="TCUnz3l-paejA2EUPetH-21" value="+int Level" style="text;strokeColor=none;fillColor=none;align=left;verticalAlign=top;spacingLeft=4;spacingRight=4;overflow=hidden;rotatable=0;points=[[0,0.5],[1,0.5]];portConstraint=eastwest;" vertex="1" parent="TCUnz3l-paejA2EUPetH-17">
          <mxGeometry y="123.93333333333334" width="253" height="31" as="geometry" />
        </mxCell>
        <mxCell id="TCUnz3l-paejA2EUPetH-22" value="+int Progress" style="text;strokeColor=none;fillColor=none;align=left;verticalAlign=top;spacingLeft=4;spacingRight=4;overflow=hidden;rotatable=0;points=[[0,0.5],[1,0.5]];portConstraint=eastwest;" vertex="1" parent="TCUnz3l-paejA2EUPetH-17">
          <mxGeometry y="154.93333333333334" width="253" height="31" as="geometry" />
        </mxCell>
        <mxCell id="TCUnz3l-paejA2EUPetH-23" value="+int RequiredProgress" style="text;strokeColor=none;fillColor=none;align=left;verticalAlign=top;spacingLeft=4;spacingRight=4;overflow=hidden;rotatable=0;points=[[0,0.5],[1,0.5]];portConstraint=eastwest;" vertex="1" parent="TCUnz3l-paejA2EUPetH-17">
          <mxGeometry y="185.93333333333334" width="253" height="31" as="geometry" />
        </mxCell>
        <mxCell id="TCUnz3l-paejA2EUPetH-24" style="line;strokeWidth=1;fillColor=none;align=left;verticalAlign=middle;spacingTop=-1;spacingLeft=3;spacingRight=3;rotatable=0;labelPosition=right;points=[];portConstraint=eastwest;strokeColor=inherit;" vertex="1" parent="TCUnz3l-paejA2EUPetH-17">
          <mxGeometry y="216.93333333333334" width="253" height="15" as="geometry" />
        </mxCell>
        <mxCell id="TCUnz3l-paejA2EUPetH-25" value="&lt;&lt;interface&gt;&gt;&#xa;ISynergySource" style="swimlane;fontStyle=1;align=center;verticalAlign=top;childLayout=stackLayout;horizontal=1;startSize=71;horizontalStack=0;resizeParent=1;resizeParentMax=0;resizeLast=0;collapsible=0;marginBottom=0;" vertex="1" parent="1">
          <mxGeometry x="278" y="1019" width="239" height="126" as="geometry" />
        </mxCell>
        <mxCell id="TCUnz3l-paejA2EUPetH-26" style="line;strokeWidth=1;fillColor=none;align=left;verticalAlign=middle;spacingTop=-1;spacingLeft=3;spacingRight=3;rotatable=0;labelPosition=right;points=[];portConstraint=eastwest;strokeColor=inherit;" vertex="1" parent="TCUnz3l-paejA2EUPetH-25">
          <mxGeometry y="71" width="239" height="8" as="geometry" />
        </mxCell>
        <mxCell id="TCUnz3l-paejA2EUPetH-27" value="+UObject GetObject()" style="text;strokeColor=none;fillColor=none;align=left;verticalAlign=top;spacingLeft=4;spacingRight=4;overflow=hidden;rotatable=0;points=[[0,0.5],[1,0.5]];portConstraint=eastwest;" vertex="1" parent="TCUnz3l-paejA2EUPetH-25">
          <mxGeometry y="79" width="239" height="47" as="geometry" />
        </mxCell>
        <mxCell id="TCUnz3l-paejA2EUPetH-28" value="&lt;&lt;interface&gt;&gt;&#xa;ISynergyTarget" style="swimlane;fontStyle=1;align=center;verticalAlign=top;childLayout=stackLayout;horizontal=1;startSize=71;horizontalStack=0;resizeParent=1;resizeParentMax=0;resizeLast=0;collapsible=0;marginBottom=0;" vertex="1" parent="1">
          <mxGeometry x="567" y="1019" width="237" height="126" as="geometry" />
        </mxCell>
        <mxCell id="TCUnz3l-paejA2EUPetH-29" style="line;strokeWidth=1;fillColor=none;align=left;verticalAlign=middle;spacingTop=-1;spacingLeft=3;spacingRight=3;rotatable=0;labelPosition=right;points=[];portConstraint=eastwest;strokeColor=inherit;" vertex="1" parent="TCUnz3l-paejA2EUPetH-28">
          <mxGeometry y="71" width="237" height="8" as="geometry" />
        </mxCell>
        <mxCell id="TCUnz3l-paejA2EUPetH-30" value="+UObject GetObject()" style="text;strokeColor=none;fillColor=none;align=left;verticalAlign=top;spacingLeft=4;spacingRight=4;overflow=hidden;rotatable=0;points=[[0,0.5],[1,0.5]];portConstraint=eastwest;" vertex="1" parent="TCUnz3l-paejA2EUPetH-28">
          <mxGeometry y="79" width="237" height="47" as="geometry" />
        </mxCell>
        <mxCell id="TCUnz3l-paejA2EUPetH-31" value="提供信息" style="curved=1;startArrow=none;endArrow=open;endSize=12;exitX=0.5;exitY=1;entryX=0.5;entryY=0;rounded=0;" edge="1" parent="1" source="TCUnz3l-paejA2EUPetH-1" target="TCUnz3l-paejA2EUPetH-5">
          <mxGeometry relative="1" as="geometry">
            <Array as="points" />
          </mxGeometry>
        </mxCell>
        <mxCell id="TCUnz3l-paejA2EUPetH-32" value="1" style="edgeLabel;resizable=0;labelBackgroundColor=none;fontSize=12;align=right;verticalAlign=top;" vertex="1" parent="TCUnz3l-paejA2EUPetH-31">
          <mxGeometry x="-1" relative="1" as="geometry" />
        </mxCell>
        <mxCell id="TCUnz3l-paejA2EUPetH-33" value="1" style="edgeLabel;resizable=0;labelBackgroundColor=none;fontSize=12;align=left;verticalAlign=bottom;" vertex="1" parent="TCUnz3l-paejA2EUPetH-31">
          <mxGeometry x="1" relative="1" as="geometry" />
        </mxCell>
        <mxCell id="TCUnz3l-paejA2EUPetH-34" value="包含" style="curved=1;startArrow=none;endArrow=open;endSize=12;exitX=0.5;exitY=1;entryX=1;entryY=0.04;rounded=0;" edge="1" parent="1" source="TCUnz3l-paejA2EUPetH-5" target="TCUnz3l-paejA2EUPetH-9">
          <mxGeometry relative="1" as="geometry">
            <Array as="points">
              <mxPoint x="815" y="423" />
            </Array>
          </mxGeometry>
        </mxCell>
        <mxCell id="TCUnz3l-paejA2EUPetH-35" value="1" style="edgeLabel;resizable=0;labelBackgroundColor=none;fontSize=12;align=right;verticalAlign=top;" vertex="1" parent="TCUnz3l-paejA2EUPetH-34">
          <mxGeometry x="-1" relative="1" as="geometry" />
        </mxCell>
        <mxCell id="TCUnz3l-paejA2EUPetH-36" value="*" style="edgeLabel;resizable=0;labelBackgroundColor=none;fontSize=12;align=left;verticalAlign=bottom;" vertex="1" parent="TCUnz3l-paejA2EUPetH-34">
          <mxGeometry x="1" relative="1" as="geometry" />
        </mxCell>
        <mxCell id="TCUnz3l-paejA2EUPetH-37" value="生成" style="curved=1;startArrow=none;endArrow=open;endSize=12;exitX=0.68;exitY=1;entryX=0.94;entryY=0;rounded=0;" edge="1" parent="1" source="TCUnz3l-paejA2EUPetH-9" target="TCUnz3l-paejA2EUPetH-17">
          <mxGeometry relative="1" as="geometry">
            <Array as="points">
              <mxPoint x="588" y="670" />
            </Array>
          </mxGeometry>
        </mxCell>
        <mxCell id="TCUnz3l-paejA2EUPetH-38" value="1" style="edgeLabel;resizable=0;labelBackgroundColor=none;fontSize=12;align=right;verticalAlign=top;" vertex="1" parent="TCUnz3l-paejA2EUPetH-37">
          <mxGeometry x="-1" relative="1" as="geometry" />
        </mxCell>
        <mxCell id="TCUnz3l-paejA2EUPetH-39" value="*" style="edgeLabel;resizable=0;labelBackgroundColor=none;fontSize=12;align=left;verticalAlign=bottom;" vertex="1" parent="TCUnz3l-paejA2EUPetH-37">
          <mxGeometry x="1" relative="1" as="geometry" />
        </mxCell>
        <mxCell id="TCUnz3l-paejA2EUPetH-40" value="应用效果" style="curved=1;startArrow=none;endArrow=open;endSize=12;exitX=0.87;exitY=1;entryX=0.56;entryY=0;rounded=0;" edge="1" parent="1" source="TCUnz3l-paejA2EUPetH-9" target="TCUnz3l-paejA2EUPetH-28">
          <mxGeometry relative="1" as="geometry">
            <Array as="points">
              <mxPoint x="705" y="670" />
              <mxPoint x="705" y="982" />
            </Array>
          </mxGeometry>
        </mxCell>
        <mxCell id="TCUnz3l-paejA2EUPetH-41" value="1" style="edgeLabel;resizable=0;labelBackgroundColor=none;fontSize=12;align=right;verticalAlign=top;" vertex="1" parent="TCUnz3l-paejA2EUPetH-40">
          <mxGeometry x="-1" relative="1" as="geometry" />
        </mxCell>
        <mxCell id="TCUnz3l-paejA2EUPetH-42" value="*" style="edgeLabel;resizable=0;labelBackgroundColor=none;fontSize=12;align=left;verticalAlign=bottom;" vertex="1" parent="TCUnz3l-paejA2EUPetH-40">
          <mxGeometry x="1" relative="1" as="geometry" />
        </mxCell>
        <mxCell id="TCUnz3l-paejA2EUPetH-43" value="来源" style="curved=1;startArrow=none;endArrow=open;endSize=12;exitX=0.36;exitY=1;entryX=0.5;entryY=0;rounded=0;" edge="1" parent="1" source="TCUnz3l-paejA2EUPetH-17" target="TCUnz3l-paejA2EUPetH-25">
          <mxGeometry relative="1" as="geometry">
            <Array as="points">
              <mxPoint x="397" y="982" />
            </Array>
          </mxGeometry>
        </mxCell>
        <mxCell id="TCUnz3l-paejA2EUPetH-44" value="1" style="edgeLabel;resizable=0;labelBackgroundColor=none;fontSize=12;align=right;verticalAlign=top;" vertex="1" parent="TCUnz3l-paejA2EUPetH-43">
          <mxGeometry x="-1" relative="1" as="geometry" />
        </mxCell>
        <mxCell id="TCUnz3l-paejA2EUPetH-45" value="1" style="edgeLabel;resizable=0;labelBackgroundColor=none;fontSize=12;align=left;verticalAlign=bottom;" vertex="1" parent="TCUnz3l-paejA2EUPetH-43">
          <mxGeometry x="1" relative="1" as="geometry" />
        </mxCell>
        <mxCell id="TCUnz3l-paejA2EUPetH-46" value="目标" style="curved=1;startArrow=none;endArrow=open;endSize=12;exitX=0.94;exitY=1;entryX=0.22;entryY=0;rounded=0;" edge="1" parent="1" source="TCUnz3l-paejA2EUPetH-17" target="TCUnz3l-paejA2EUPetH-28">
          <mxGeometry relative="1" as="geometry">
            <Array as="points">
              <mxPoint x="588" y="982" />
            </Array>
          </mxGeometry>
        </mxCell>
        <mxCell id="TCUnz3l-paejA2EUPetH-47" value="1" style="edgeLabel;resizable=0;labelBackgroundColor=none;fontSize=12;align=right;verticalAlign=top;" vertex="1" parent="TCUnz3l-paejA2EUPetH-46">
          <mxGeometry x="-1" relative="1" as="geometry" />
        </mxCell>
        <mxCell id="TCUnz3l-paejA2EUPetH-48" value="1" style="edgeLabel;resizable=0;labelBackgroundColor=none;fontSize=12;align=left;verticalAlign=bottom;" vertex="1" parent="TCUnz3l-paejA2EUPetH-46">
          <mxGeometry x="1" relative="1" as="geometry" />
        </mxCell>
        <mxCell id="TCUnz3l-paejA2EUPetH-49" value="来源定义" style="curved=1;startArrow=none;endArrow=open;endSize=12;exitX=0.39;exitY=0;entryX=0.38;entryY=1;rounded=0;" edge="1" parent="1" source="TCUnz3l-paejA2EUPetH-17" target="TCUnz3l-paejA2EUPetH-9">
          <mxGeometry relative="1" as="geometry">
            <Array as="points">
              <mxPoint x="407" y="670" />
            </Array>
          </mxGeometry>
        </mxCell>
        <mxCell id="TCUnz3l-paejA2EUPetH-50" value="1" style="edgeLabel;resizable=0;labelBackgroundColor=none;fontSize=12;align=right;verticalAlign=bottom;" vertex="1" parent="TCUnz3l-paejA2EUPetH-49">
          <mxGeometry x="-1" relative="1" as="geometry" />
        </mxCell>
        <mxCell id="TCUnz3l-paejA2EUPetH-51" value="1" style="edgeLabel;resizable=0;labelBackgroundColor=none;fontSize=12;align=left;verticalAlign=top;" vertex="1" parent="TCUnz3l-paejA2EUPetH-49">
          <mxGeometry x="1" relative="1" as="geometry" />
        </mxCell>
        <mxCell id="TCUnz3l-paejA2EUPetH-52" value="" style="curved=1;startArrow=block;startSize=16;startFill=0;endArrow=none;exitX=0.5;exitY=1;entryX=0.16;entryY=0;rounded=0;" edge="1" parent="1" source="TCUnz3l-paejA2EUPetH-13" target="TCUnz3l-paejA2EUPetH-9">
          <mxGeometry relative="1" as="geometry">
            <Array as="points">
              <mxPoint x="268" y="423" />
            </Array>
          </mxGeometry>
        </mxCell>
      </root>
    </mxGraphModel>
  </diagram>
</mxfile>
